<?xml version="1.0" encoding="UTF-8"?>
<svg xmlns="http://www.w3.org/2000/svg" xmlns:xlink="http://www.w3.org/1999/xlink" width="177.1pt" height="159.01pt" viewBox="0 0 177.1 159.01">
<defs>
<g>
<g id="glyph-0-0">
<path d="M 7.765625 -4.578125 C 7.765625 -6.265625 6.65625 -7.40625 5.09375 -7.40625 C 2.828125 -7.40625 0.515625 -5.015625 0.515625 -2.578125 C 0.515625 -0.828125 1.6875 0.234375 3.203125 0.234375 C 5.421875 0.234375 7.765625 -2.0625 7.765625 -4.578125 Z M 3.265625 -0.046875 C 2.21875 -0.046875 1.484375 -0.890625 1.484375 -2.28125 C 1.484375 -2.734375 1.640625 -4.28125 2.453125 -5.5 C 3.171875 -6.59375 4.203125 -7.140625 5.03125 -7.140625 C 5.890625 -7.140625 6.828125 -6.546875 6.828125 -4.984375 C 6.828125 -4.234375 6.546875 -2.59375 5.515625 -1.296875 C 5.015625 -0.65625 4.140625 -0.046875 3.265625 -0.046875 Z M 3.265625 -0.046875 "/>
</g>
<g id="glyph-0-1">
<path d="M 1.875 -1.203125 C 1.453125 -0.5 1.046875 -0.359375 0.59375 -0.328125 C 0.46875 -0.3125 0.375 -0.3125 0.375 -0.109375 C 0.375 -0.046875 0.421875 0 0.5 0 C 0.78125 0 1.109375 -0.03125 1.40625 -0.03125 C 1.75 -0.03125 2.125 0 2.453125 0 C 2.515625 0 2.65625 0 2.65625 -0.203125 C 2.65625 -0.3125 2.5625 -0.328125 2.484375 -0.328125 C 2.25 -0.34375 2 -0.4375 2 -0.6875 C 2 -0.8125 2.0625 -0.9375 2.140625 -1.078125 L 2.9375 -2.421875 L 5.578125 -2.421875 C 5.59375 -2.203125 5.75 -0.78125 5.75 -0.671875 C 5.75 -0.359375 5.203125 -0.328125 4.984375 -0.328125 C 4.84375 -0.328125 4.734375 -0.328125 4.734375 -0.109375 C 4.734375 0 4.859375 0 4.875 0 C 5.3125 0 5.765625 -0.03125 6.1875 -0.03125 C 6.453125 -0.03125 7.125 0 7.375 0 C 7.4375 0 7.578125 0 7.578125 -0.203125 C 7.578125 -0.328125 7.46875 -0.328125 7.328125 -0.328125 C 6.671875 -0.328125 6.671875 -0.40625 6.640625 -0.703125 L 6 -7.265625 C 5.984375 -7.46875 5.984375 -7.515625 5.8125 -7.515625 C 5.640625 -7.515625 5.59375 -7.4375 5.53125 -7.34375 Z M 3.140625 -2.75 L 5.203125 -6.21875 L 5.546875 -2.75 Z M 3.140625 -2.75 "/>
</g>
<g id="glyph-0-2">
<path d="M 1.6875 -0.8125 C 1.578125 -0.40625 1.546875 -0.328125 0.71875 -0.328125 C 0.546875 -0.328125 0.4375 -0.328125 0.4375 -0.109375 C 0.4375 0 0.53125 0 0.71875 0 L 4.46875 0 C 6.125 0 7.375 -1.234375 7.375 -2.265625 C 7.375 -3.03125 6.765625 -3.640625 5.75 -3.75 C 6.828125 -3.953125 7.9375 -4.71875 7.9375 -5.71875 C 7.9375 -6.5 7.25 -7.171875 5.984375 -7.171875 L 2.453125 -7.171875 C 2.25 -7.171875 2.15625 -7.171875 2.15625 -6.96875 C 2.15625 -6.84375 2.25 -6.84375 2.453125 -6.84375 C 2.46875 -6.84375 2.671875 -6.84375 2.84375 -6.828125 C 3.03125 -6.796875 3.125 -6.796875 3.125 -6.65625 C 3.125 -6.609375 3.125 -6.578125 3.09375 -6.453125 Z M 3.265625 -3.84375 L 3.921875 -6.453125 C 4.015625 -6.8125 4.03125 -6.84375 4.484375 -6.84375 L 5.84375 -6.84375 C 6.765625 -6.84375 6.984375 -6.21875 6.984375 -5.765625 C 6.984375 -4.84375 6.078125 -3.84375 4.796875 -3.84375 Z M 2.796875 -0.328125 C 2.640625 -0.328125 2.625 -0.328125 2.5625 -0.34375 C 2.453125 -0.34375 2.421875 -0.359375 2.421875 -0.4375 C 2.421875 -0.46875 2.421875 -0.5 2.484375 -0.6875 L 3.203125 -3.609375 L 5.1875 -3.609375 C 6.1875 -3.609375 6.390625 -2.828125 6.390625 -2.390625 C 6.390625 -1.34375 5.453125 -0.328125 4.21875 -0.328125 Z M 2.796875 -0.328125 "/>
</g>
<g id="glyph-0-3">
<path d="M 7.984375 -7.296875 C 7.984375 -7.328125 7.953125 -7.40625 7.859375 -7.40625 C 7.828125 -7.40625 7.828125 -7.390625 7.703125 -7.28125 L 6.96875 -6.46875 C 6.875 -6.609375 6.390625 -7.40625 5.234375 -7.40625 C 2.890625 -7.40625 0.53125 -5.078125 0.53125 -2.640625 C 0.53125 -0.90625 1.765625 0.234375 3.375 0.234375 C 4.28125 0.234375 5.078125 -0.1875 5.640625 -0.671875 C 6.609375 -1.53125 6.796875 -2.484375 6.796875 -2.515625 C 6.796875 -2.625 6.6875 -2.625 6.671875 -2.625 C 6.609375 -2.625 6.546875 -2.609375 6.53125 -2.515625 C 6.4375 -2.21875 6.1875 -1.46875 5.46875 -0.859375 C 4.75 -0.265625 4.078125 -0.09375 3.53125 -0.09375 C 2.59375 -0.09375 1.484375 -0.640625 1.484375 -2.28125 C 1.484375 -2.875 1.703125 -4.578125 2.75 -5.8125 C 3.390625 -6.546875 4.375 -7.078125 5.3125 -7.078125 C 6.390625 -7.078125 7 -6.265625 7 -5.046875 C 7 -4.625 6.96875 -4.625 6.96875 -4.515625 C 6.96875 -4.40625 7.09375 -4.40625 7.125 -4.40625 C 7.265625 -4.40625 7.265625 -4.4375 7.3125 -4.625 Z M 7.984375 -7.296875 "/>
</g>
<g id="glyph-0-4">
<path d="M 1.671875 -0.8125 C 1.5625 -0.40625 1.546875 -0.328125 0.71875 -0.328125 C 0.53125 -0.328125 0.421875 -0.328125 0.421875 -0.125 C 0.421875 0 0.515625 0 0.71875 0 L 4.1875 0 C 6.375 0 8.4375 -2.21875 8.4375 -4.515625 C 8.4375 -6 7.546875 -7.171875 5.96875 -7.171875 L 2.453125 -7.171875 C 2.25 -7.171875 2.125 -7.171875 2.125 -6.96875 C 2.125 -6.84375 2.21875 -6.84375 2.4375 -6.84375 C 2.578125 -6.84375 2.765625 -6.828125 2.890625 -6.828125 C 3.0625 -6.796875 3.125 -6.765625 3.125 -6.65625 C 3.125 -6.609375 3.109375 -6.578125 3.078125 -6.453125 Z M 3.9375 -6.453125 C 4.03125 -6.8125 4.046875 -6.84375 4.5 -6.84375 L 5.625 -6.84375 C 6.65625 -6.84375 7.53125 -6.296875 7.53125 -4.90625 C 7.53125 -4.390625 7.3125 -2.671875 6.421875 -1.515625 C 6.125 -1.125 5.296875 -0.328125 4 -0.328125 L 2.8125 -0.328125 C 2.671875 -0.328125 2.640625 -0.328125 2.578125 -0.34375 C 2.484375 -0.34375 2.453125 -0.359375 2.453125 -0.4375 C 2.453125 -0.46875 2.453125 -0.5 2.5 -0.6875 Z M 3.9375 -6.453125 "/>
</g>
</g>
</defs>
<path fill="none" stroke-width="0.79701" stroke-linecap="butt" stroke-linejoin="miter" stroke="rgb(0%, 0%, 0%)" stroke-opacity="1" stroke-miterlimit="10" d="M -0.00165625 0.0004375 L -73.646187 42.519969 " transform="matrix(1, 0, 0, -1, 92.904, 103.602)"/>
<path fill="none" stroke-width="0.79701" stroke-linecap="butt" stroke-linejoin="miter" stroke="rgb(0%, 0%, 0%)" stroke-opacity="1" stroke-miterlimit="10" d="M -34.009469 23.086375 L -39.583687 19.402781 " transform="matrix(1, 0, 0, -1, 92.904, 103.602)"/>
<path fill="none" stroke-width="0.79701" stroke-linecap="butt" stroke-linejoin="miter" stroke="rgb(0%, 0%, 0%)" stroke-opacity="1" stroke-miterlimit="10" d="M -0.00165625 0.0004375 L -0.00165625 85.0395 " transform="matrix(1, 0, 0, -1, 92.904, 103.602)"/>
<path fill="none" stroke-width="0.79701" stroke-linecap="butt" stroke-linejoin="miter" stroke="rgb(0%, 0%, 0%)" stroke-opacity="1" stroke-miterlimit="10" d="M 2.990531 41.023875 L -2.989937 44.016063 " transform="matrix(1, 0, 0, -1, 92.904, 103.602)"/>
<path fill="none" stroke-width="0.79701" stroke-linecap="butt" stroke-linejoin="miter" stroke="rgb(0%, 0%, 0%)" stroke-opacity="1" stroke-miterlimit="10" d="M -73.646187 42.519969 L -0.00165625 85.0395 " transform="matrix(1, 0, 0, -1, 92.904, 103.602)"/>
<path fill="none" stroke-width="0.79701" stroke-linecap="butt" stroke-linejoin="miter" stroke="rgb(0%, 0%, 0%)" stroke-opacity="1" stroke-miterlimit="10" d="M -36.650094 60.430125 L -37.052437 67.098094 " transform="matrix(1, 0, 0, -1, 92.904, 103.602)"/>
<path fill="none" stroke-width="0.79701" stroke-linecap="butt" stroke-linejoin="miter" stroke="rgb(0%, 0%, 0%)" stroke-opacity="1" stroke-miterlimit="10" d="M -0.00165625 0.0004375 L 63.826469 36.852 " transform="matrix(1, 0, 0, -1, 92.904, 103.602)"/>
<path fill="none" stroke-width="0.79701" stroke-linecap="butt" stroke-linejoin="miter" stroke="rgb(0%, 0%, 0%)" stroke-opacity="1" stroke-miterlimit="10" d="M 32.107719 15.086375 L 31.705375 21.754344 " transform="matrix(1, 0, 0, -1, 92.904, 103.602)"/>
<path fill="none" stroke-width="0.79701" stroke-linecap="butt" stroke-linejoin="miter" stroke="rgb(0%, 0%, 0%)" stroke-opacity="1" stroke-miterlimit="10" d="M -0.00165625 0.0004375 L 63.826469 -36.851125 " transform="matrix(1, 0, 0, -1, 92.904, 103.602)"/>
<path fill="none" stroke-width="0.79701" stroke-linecap="butt" stroke-linejoin="miter" stroke="rgb(0%, 0%, 0%)" stroke-opacity="1" stroke-miterlimit="10" d="M 29.115531 -20.261281 L 34.693656 -16.577687 " transform="matrix(1, 0, 0, -1, 92.904, 103.602)"/>
<path fill="none" stroke-width="0.79701" stroke-linecap="butt" stroke-linejoin="miter" stroke="rgb(0%, 0%, 0%)" stroke-opacity="1" stroke-miterlimit="10" d="M 63.826469 36.852 L 63.826469 -36.851125 " transform="matrix(1, 0, 0, -1, 92.904, 103.602)"/>
<path fill="none" stroke-width="0.79701" stroke-linecap="butt" stroke-linejoin="miter" stroke="rgb(0%, 0%, 0%)" stroke-opacity="1" stroke-miterlimit="10" d="M 60.838188 1.492625 L 66.81475 -1.495656 " transform="matrix(1, 0, 0, -1, 92.904, 103.602)"/>
<path fill="none" stroke-width="0.79701" stroke-linecap="butt" stroke-linejoin="miter" stroke="rgb(100%, 0%, 0%)" stroke-opacity="1" stroke-dasharray="2.98883 2.98883" stroke-miterlimit="10" d="M -73.646187 42.519969 L 63.826469 36.852 " transform="matrix(1, 0, 0, -1, 92.904, 103.602)"/>
<path fill="none" stroke-width="0.79701" stroke-linecap="butt" stroke-linejoin="miter" stroke="rgb(100%, 0%, 0%)" stroke-opacity="1" stroke-dasharray="2.98883 2.98883" stroke-miterlimit="10" d="M -0.00165625 85.0395 L 63.826469 -36.851125 " transform="matrix(1, 0, 0, -1, 92.904, 103.602)"/>
<g fill="rgb(0%, 0%, 0%)" fill-opacity="1">
<use xlink:href="#glyph-0-0" x="88.754" y="114.675"/>
</g>
<g fill="rgb(0%, 0%, 0%)" fill-opacity="1">
<use xlink:href="#glyph-0-1" x="7.483" y="57.184"/>
</g>
<g fill="rgb(0%, 0%, 0%)" fill-opacity="1">
<use xlink:href="#glyph-0-2" x="88.658" y="14.663"/>
</g>
<g fill="rgb(0%, 0%, 0%)" fill-opacity="1">
<use xlink:href="#glyph-0-3" x="160.63" y="62.853"/>
</g>
<g fill="rgb(0%, 0%, 0%)" fill-opacity="1">
<use xlink:href="#glyph-0-4" x="160.63" y="151.526"/>
</g>
</svg>
