<?xml version="1.0" encoding="UTF-8"?>
<svg xmlns="http://www.w3.org/2000/svg" xmlns:xlink="http://www.w3.org/1999/xlink" width="312.96pt" height="192.62pt" viewBox="0 0 312.96 192.62">
<defs>
<g>
<g id="glyph-0-0">
</g>
<g id="glyph-0-1">
<path d="M 9.65625 0 L 9.65625 -0.4375 L 8.6875 -0.4375 L 8.6875 -5.71875 L 9.65625 -5.71875 L 9.65625 -6.15625 L 7.65625 -6.15625 C 7.46875 -6.15625 7.34375 -6.15625 7.234375 -5.921875 L 5.03125 -1.171875 L 2.828125 -5.921875 C 2.71875 -6.15625 2.59375 -6.15625 2.40625 -6.15625 L 0.40625 -6.15625 L 0.40625 -5.71875 L 1.375 -5.71875 L 1.375 -0.703125 C 1.375 -0.5 1.359375 -0.5 1.109375 -0.46875 C 0.890625 -0.4375 0.875 -0.4375 0.640625 -0.4375 L 0.40625 -0.4375 L 0.40625 0 C 0.984375 -0.03125 1.234375 -0.03125 1.625 -0.03125 C 2.015625 -0.03125 2.265625 -0.03125 2.859375 0 L 2.859375 -0.4375 L 2.625 -0.4375 C 2.375 -0.4375 2.359375 -0.4375 2.140625 -0.46875 C 1.890625 -0.5 1.890625 -0.5 1.890625 -0.703125 L 1.890625 -5.59375 L 4.375 -0.234375 C 4.40625 -0.15625 4.484375 0 4.6875 0 C 4.890625 0 4.953125 -0.140625 5 -0.234375 L 7.53125 -5.703125 L 7.546875 -5.703125 L 7.546875 -0.4375 L 6.578125 -0.4375 L 6.578125 0 C 6.890625 -0.03125 7.75 -0.03125 8.109375 -0.03125 C 8.46875 -0.03125 9.34375 -0.03125 9.65625 0 Z M 9.65625 0 "/>
</g>
<g id="glyph-0-2">
<path d="M 5.65625 0 L 5.65625 -0.4375 C 5.109375 -0.4375 5.046875 -0.4375 5.046875 -0.796875 L 5.046875 -4.03125 L 3.375 -3.96875 L 3.375 -3.53125 C 3.921875 -3.53125 3.984375 -3.53125 3.984375 -3.171875 L 3.984375 -1.46875 C 3.984375 -0.75 3.53125 -0.3125 2.828125 -0.3125 C 2.140625 -0.3125 2.109375 -0.5 2.109375 -0.984375 L 2.109375 -4.03125 L 0.453125 -3.96875 L 0.453125 -3.53125 C 0.984375 -3.53125 1.0625 -3.53125 1.0625 -3.171875 L 1.0625 -1.109375 C 1.0625 -0.125 1.828125 0.046875 2.703125 0.046875 C 2.984375 0.046875 3.59375 0.046875 4.046875 -0.625 L 4.046875 0.046875 Z M 5.65625 0 "/>
</g>
<g id="glyph-0-3">
<path d="M 3.53125 -1.109375 L 3.53125 -1.578125 L 3.0625 -1.578125 L 3.0625 -1.125 C 3.0625 -0.5 2.75 -0.328125 2.515625 -0.328125 C 2 -0.328125 2 -0.875 2 -1.078125 L 2 -3.546875 L 3.359375 -3.546875 L 3.359375 -3.984375 L 2 -3.984375 L 2 -5.6875 L 1.546875 -5.6875 C 1.53125 -4.859375 1.109375 -3.921875 0.203125 -3.90625 L 0.203125 -3.546875 L 0.953125 -3.546875 L 0.953125 -1.109375 C 0.953125 -0.078125 1.84375 0.046875 2.390625 0.046875 C 3.09375 0.046875 3.53125 -0.453125 3.53125 -1.109375 Z M 3.53125 -1.109375 "/>
</g>
<g id="glyph-0-4">
<path d="M 5.109375 -0.21875 C 5.109375 -0.4375 4.953125 -0.4375 4.875 -0.4375 C 4.296875 -0.453125 4.296875 -0.53125 4.296875 -0.75 L 4.296875 -2.671875 C 4.296875 -3.46875 3.65625 -4.0625 2.265625 -4.0625 C 1.765625 -4.0625 0.609375 -4.046875 0.609375 -3.21875 C 0.609375 -2.8125 0.921875 -2.625 1.1875 -2.625 C 1.5 -2.625 1.78125 -2.84375 1.78125 -3.203125 C 1.78125 -3.46875 1.625 -3.625 1.59375 -3.65625 C 1.6875 -3.671875 1.90625 -3.703125 2.234375 -3.703125 C 2.875 -3.703125 3.25 -3.375 3.25 -2.671875 L 3.25 -2.390625 C 1.765625 -2.390625 0.25 -2 0.25 -1 C 0.25 -0.109375 1.375 0.046875 2.015625 0.046875 C 2.703125 0.046875 3.171875 -0.234375 3.40625 -0.65625 C 3.40625 -0.4375 3.40625 0 4.375 0 L 4.8125 0 C 4.984375 0 5.109375 0 5.109375 -0.21875 Z M 3.25 -1.25 C 3.25 -0.3125 2.203125 -0.3125 2.171875 -0.3125 C 1.71875 -0.3125 1.34375 -0.59375 1.34375 -1 C 1.34375 -1.296875 1.5 -2 3.25 -2.078125 Z M 3.25 -1.25 "/>
</g>
<g id="glyph-0-5">
<path d="M 2.6875 0 L 2.6875 -0.4375 L 2.078125 -0.4375 L 2.078125 -6.21875 L 0.46875 -6.15625 L 0.46875 -5.71875 C 1 -5.71875 1.078125 -5.71875 1.078125 -5.359375 L 1.078125 -0.4375 L 0.46875 -0.4375 L 0.46875 0 L 1.5625 -0.03125 Z M 2.6875 0 "/>
</g>
<g id="glyph-0-6">
<path d="M 5.34375 -3.546875 L 5.34375 -3.984375 C 5.09375 -3.953125 4.875 -3.953125 4.625 -3.953125 C 4.34375 -3.953125 4.078125 -3.96875 3.8125 -3.984375 L 3.8125 -3.546875 C 3.8125 -3.546875 4.203125 -3.546875 4.203125 -3.4375 C 4.203125 -3.4375 4.203125 -3.421875 4.15625 -3.328125 L 3.09375 -1.140625 L 1.921875 -3.546875 L 2.390625 -3.546875 L 2.390625 -3.984375 L 1.28125 -3.953125 C 0.953125 -3.953125 0.78125 -3.953125 0.25 -3.984375 L 0.25 -3.546875 L 0.8125 -3.546875 L 2.53125 0 C 2.21875 0.734375 1.890625 1.4375 1.1875 1.4375 C 1.140625 1.4375 1.078125 1.4375 1.015625 1.40625 C 1.171875 1.328125 1.28125 1.171875 1.28125 0.9375 C 1.28125 0.59375 1.03125 0.40625 0.75 0.40625 C 0.453125 0.40625 0.203125 0.59375 0.203125 0.9375 C 0.203125 1.421875 0.65625 1.796875 1.1875 1.796875 C 1.890625 1.796875 2.4375 1.28125 2.71875 0.6875 L 4.6875 -3.34375 C 4.75 -3.484375 4.78125 -3.546875 5.34375 -3.546875 Z M 5.34375 -3.546875 "/>
</g>
<g id="glyph-0-7">
<path d="M 6.65625 -2.46875 L 6.203125 -2.46875 C 6.015625 -1.328125 5.8125 -0.4375 4.078125 -0.4375 L 2.640625 -0.4375 L 2.640625 -2.9375 L 3.171875 -2.9375 C 4.046875 -2.9375 4.140625 -2.546875 4.140625 -1.890625 L 4.59375 -1.890625 L 4.59375 -4.4375 L 4.140625 -4.4375 C 4.140625 -3.78125 4.046875 -3.375 3.171875 -3.375 L 2.640625 -3.375 L 2.640625 -5.65625 L 4.0625 -5.65625 C 5.484375 -5.65625 5.765625 -5.046875 5.90625 -3.921875 L 6.375 -3.921875 L 6.09375 -6.09375 L 0.375 -6.09375 L 0.375 -5.65625 L 1.34375 -5.65625 L 1.34375 -0.4375 L 0.375 -0.4375 L 0.375 0 L 6.25 0 Z M 6.65625 -2.46875 "/>
</g>
<g id="glyph-0-8">
<path d="M 5.375 0 L 5.375 -0.4375 L 4.75 -0.4375 L 3.203125 -2.203125 L 4.3125 -3.375 C 4.40625 -3.484375 4.46875 -3.546875 5.1875 -3.546875 L 5.1875 -3.984375 C 4.875 -3.953125 4.640625 -3.953125 4.34375 -3.953125 C 4.1875 -3.953125 3.84375 -3.953125 3.4375 -3.984375 L 3.4375 -3.546875 C 3.625 -3.546875 3.671875 -3.5 3.734375 -3.4375 L 2.90625 -2.53125 L 2.015625 -3.546875 L 2.34375 -3.546875 L 2.34375 -3.984375 L 1.265625 -3.953125 C 1.078125 -3.953125 0.734375 -3.953125 0.28125 -3.984375 L 0.28125 -3.546875 L 0.90625 -3.546875 L 2.328125 -1.921875 L 1.125 -0.609375 C 0.953125 -0.4375 0.640625 -0.4375 0.234375 -0.4375 L 0.234375 0 C 0.53125 -0.03125 0.765625 -0.03125 1.0625 -0.03125 C 1.234375 -0.03125 1.578125 -0.03125 1.984375 0 L 1.984375 -0.4375 C 1.84375 -0.4375 1.6875 -0.46875 1.6875 -0.53125 C 1.6875 -0.578125 1.765625 -0.640625 1.765625 -0.640625 L 2.640625 -1.578125 L 3.625 -0.4375 L 3.3125 -0.4375 L 3.3125 0 L 4.390625 -0.03125 C 4.59375 -0.03125 4.921875 -0.03125 5.375 0 Z M 5.375 0 "/>
</g>
<g id="glyph-0-9">
<path d="M 4.40625 -1.046875 C 4.40625 -1.1875 4.28125 -1.1875 4.171875 -1.1875 C 4 -1.1875 4 -1.171875 3.921875 -1.015625 C 3.75 -0.578125 3.34375 -0.328125 2.8125 -0.328125 C 1.546875 -0.328125 1.546875 -1.625 1.546875 -2.03125 C 1.546875 -2.5625 1.546875 -3.671875 2.71875 -3.671875 C 2.796875 -3.671875 3.28125 -3.671875 3.28125 -3.625 L 3.25 -3.578125 C 3.171875 -3.484375 3.125 -3.34375 3.125 -3.203125 C 3.125 -2.84375 3.40625 -2.625 3.71875 -2.625 C 3.984375 -2.625 4.296875 -2.8125 4.296875 -3.21875 C 4.296875 -4.0625 3.046875 -4.0625 2.6875 -4.0625 C 0.96875 -4.0625 0.34375 -2.96875 0.34375 -1.984375 C 0.34375 -0.859375 1.15625 0.046875 2.640625 0.046875 C 2.984375 0.046875 3.421875 0 3.796875 -0.234375 C 4.3125 -0.546875 4.40625 -1.015625 4.40625 -1.046875 Z M 4.40625 -1.046875 "/>
</g>
<g id="glyph-0-10">
<path d="M 3.828125 -1.25 C 3.828125 -1.71875 3.5625 -2 3.40625 -2.140625 C 3 -2.46875 2.71875 -2.515625 2.015625 -2.640625 C 1.578125 -2.703125 1.015625 -2.796875 1.015625 -3.203125 C 1.015625 -3.734375 1.84375 -3.734375 2.046875 -3.734375 C 3.046875 -3.734375 3.078125 -3.203125 3.109375 -2.96875 C 3.109375 -2.84375 3.234375 -2.84375 3.328125 -2.84375 C 3.546875 -2.84375 3.5625 -2.890625 3.5625 -3.109375 L 3.5625 -3.796875 C 3.5625 -3.96875 3.5625 -4.0625 3.375 -4.0625 C 3.296875 -4.0625 3.140625 -3.984375 2.984375 -3.90625 C 2.703125 -4.03125 2.34375 -4.0625 2.046875 -4.0625 C 1.78125 -4.0625 0.34375 -4.0625 0.34375 -2.875 C 0.34375 -1.9375 1.53125 -1.734375 1.84375 -1.6875 C 2.578125 -1.5625 3.171875 -1.46875 3.171875 -0.953125 C 3.171875 -0.3125 2.328125 -0.3125 2.125 -0.3125 C 1.671875 -0.3125 1.078125 -0.421875 0.828125 -1.25 C 0.78125 -1.40625 0.765625 -1.421875 0.578125 -1.421875 C 0.34375 -1.421875 0.34375 -1.375 0.34375 -1.15625 L 0.34375 -0.203125 C 0.34375 -0.046875 0.34375 0.046875 0.53125 0.046875 C 0.59375 0.046875 0.609375 0.046875 0.8125 -0.078125 L 1.046875 -0.21875 C 1.46875 0.046875 1.953125 0.046875 2.125 0.046875 C 2.390625 0.046875 3.828125 0.046875 3.828125 -1.25 Z M 3.828125 -1.25 "/>
</g>
<g id="glyph-0-11">
<path d="M 2.625 0 L 2.625 -0.4375 L 2.078125 -0.4375 L 2.078125 -4.03125 L 0.5 -3.96875 L 0.5 -3.53125 C 1.015625 -3.53125 1.078125 -3.53125 1.078125 -3.171875 L 1.078125 -0.4375 L 0.46875 -0.4375 L 0.46875 0 C 1.0625 -0.015625 1.1875 -0.03125 1.5625 -0.03125 C 2 -0.03125 2.109375 -0.015625 2.625 0 Z M 2.171875 -5.421875 C 2.171875 -5.84375 1.828125 -6.140625 1.46875 -6.140625 C 1.09375 -6.140625 0.765625 -5.828125 0.765625 -5.4375 C 0.765625 -5.015625 1.109375 -4.734375 1.46875 -4.734375 C 1.84375 -4.734375 2.171875 -5.03125 2.171875 -5.421875 Z M 2.171875 -5.421875 "/>
</g>
<g id="glyph-0-12">
<path d="M 5.34375 -3.546875 L 5.34375 -3.984375 C 5.09375 -3.953125 4.875 -3.953125 4.625 -3.953125 C 4.359375 -3.953125 4.078125 -3.953125 3.8125 -3.984375 L 3.8125 -3.546875 C 4.0625 -3.546875 4.140625 -3.5 4.21875 -3.46875 C 4.21875 -3.421875 4.21875 -3.40625 4.171875 -3.34375 L 3.09375 -1.109375 L 1.921875 -3.546875 L 2.390625 -3.546875 L 2.390625 -3.984375 L 1.28125 -3.953125 C 0.953125 -3.953125 0.78125 -3.953125 0.25 -3.984375 L 0.25 -3.546875 L 0.8125 -3.546875 L 2.421875 -0.203125 C 2.5 -0.03125 2.578125 0.046875 2.796875 0.046875 C 3.015625 0.046875 3.09375 -0.03125 3.171875 -0.203125 L 4.6875 -3.359375 C 4.75 -3.484375 4.78125 -3.546875 5.34375 -3.546875 Z M 5.34375 -3.546875 "/>
</g>
<g id="glyph-0-13">
<path d="M 4.5625 -1.046875 C 4.5625 -1.21875 4.390625 -1.21875 4.328125 -1.21875 C 4.171875 -1.21875 4.15625 -1.171875 4.09375 -1.046875 C 3.890625 -0.578125 3.34375 -0.328125 2.78125 -0.328125 C 1.5 -0.328125 1.484375 -1.484375 1.484375 -1.921875 L 4.265625 -1.921875 C 4.453125 -1.921875 4.5625 -1.921875 4.5625 -2.171875 C 4.5625 -2.375 4.546875 -3.171875 3.96875 -3.65625 C 3.5625 -3.984375 3.015625 -4.0625 2.578125 -4.0625 C 1.046875 -4.0625 0.296875 -3.09375 0.296875 -2.015625 C 0.296875 -0.84375 1.1875 0.046875 2.703125 0.046875 C 4.1875 0.046875 4.5625 -0.890625 4.5625 -1.046875 Z M 3.6875 -2.25 L 1.484375 -2.25 C 1.5 -2.65625 1.546875 -3.703125 2.578125 -3.703125 C 3.625 -3.703125 3.671875 -2.609375 3.6875 -2.25 Z M 3.6875 -2.25 "/>
</g>
<g id="glyph-0-14">
<path d="M 3.65625 0 L 3.65625 -0.4375 L 2.640625 -0.4375 L 2.640625 -5.71875 L 3.65625 -5.71875 L 3.65625 -6.15625 C 3.34375 -6.125 2.375 -6.125 2 -6.125 C 1.625 -6.125 0.640625 -6.125 0.328125 -6.15625 L 0.328125 -5.71875 L 1.34375 -5.71875 L 1.34375 -0.4375 L 0.328125 -0.4375 L 0.328125 0 C 0.640625 -0.03125 1.609375 -0.03125 1.984375 -0.03125 C 2.375 -0.03125 3.34375 -0.03125 3.65625 0 Z M 3.65625 0 "/>
</g>
<g id="glyph-0-15">
<path d="M 5.65625 0 L 5.65625 -0.4375 L 5.046875 -0.4375 L 5.046875 -2.734375 C 5.046875 -3.796875 4.390625 -4.03125 3.609375 -4.03125 C 2.515625 -4.03125 2.078125 -3.234375 2.015625 -3.09375 L 2 -3.09375 L 2 -4.03125 L 0.453125 -3.96875 L 0.453125 -3.53125 C 0.984375 -3.53125 1.0625 -3.53125 1.0625 -3.171875 L 1.0625 -0.4375 L 0.453125 -0.4375 L 0.453125 0 L 1.578125 -0.03125 L 2.71875 0 L 2.71875 -0.4375 L 2.109375 -0.4375 L 2.109375 -2.28125 C 2.109375 -3.28125 2.9375 -3.671875 3.46875 -3.671875 C 3.8125 -3.671875 3.984375 -3.484375 3.984375 -2.8125 L 3.984375 -0.4375 L 3.375 -0.4375 L 3.375 0 L 4.515625 -0.03125 Z M 5.65625 0 "/>
</g>
<g id="glyph-0-16">
<path d="M 5.515625 0 L 5.515625 -0.4375 C 4.984375 -0.4375 4.90625 -0.4375 4.90625 -0.796875 L 4.90625 -6.21875 L 3.296875 -6.15625 L 3.296875 -5.71875 C 3.84375 -5.71875 3.90625 -5.71875 3.90625 -5.359375 L 3.90625 -3.625 C 3.515625 -3.921875 3.09375 -4.03125 2.65625 -4.03125 C 1.203125 -4.03125 0.34375 -3.140625 0.34375 -1.984375 C 0.34375 -0.796875 1.1875 0.046875 2.5625 0.046875 C 3.125 0.046875 3.5625 -0.15625 3.859375 -0.390625 L 3.859375 0.046875 Z M 3.859375 -0.984375 C 3.65625 -0.65625 3.234375 -0.3125 2.65625 -0.3125 C 1.546875 -0.3125 1.546875 -1.375 1.546875 -1.96875 C 1.546875 -2.5 1.546875 -2.875 1.78125 -3.203125 C 2.015625 -3.5625 2.453125 -3.671875 2.765625 -3.671875 C 3.203125 -3.671875 3.578125 -3.484375 3.859375 -3.125 Z M 3.859375 -0.984375 "/>
</g>
<g id="glyph-0-17">
<path d="M 5.53125 -1.984375 C 5.53125 -3.171875 4.71875 -4.03125 3.359375 -4.03125 C 2.640625 -4.03125 2.140625 -3.734375 1.96875 -3.609375 L 1.96875 -4.03125 L 0.375 -3.96875 L 0.375 -3.53125 C 0.546875 -3.53125 0.6875 -3.53125 0.8125 -3.5 C 0.984375 -3.46875 0.984375 -3.375 0.984375 -3.1875 L 0.984375 1.296875 L 0.375 1.296875 L 0.375 1.734375 L 1.5 1.71875 L 2.640625 1.734375 L 2.640625 1.296875 L 2.03125 1.296875 L 2.03125 -0.34375 C 2.5625 0.046875 3.046875 0.046875 3.21875 0.046875 C 4.625 0.046875 5.53125 -0.796875 5.53125 -1.984375 Z M 4.34375 -2 C 4.34375 -0.75 3.703125 -0.3125 3.109375 -0.3125 C 2.65625 -0.3125 2.265625 -0.5625 2.03125 -0.9375 L 2.03125 -3.09375 C 2.1875 -3.296875 2.609375 -3.65625 3.21875 -3.65625 C 3.84375 -3.65625 4.34375 -3.09375 4.34375 -2 Z M 4.34375 -2 "/>
</g>
<g id="glyph-1-0">
<path d="M 1.78125 -1.140625 C 1.390625 -0.484375 1 -0.34375 0.5625 -0.3125 C 0.4375 -0.296875 0.34375 -0.296875 0.34375 -0.109375 C 0.34375 -0.046875 0.40625 0 0.484375 0 C 0.75 0 1.0625 -0.03125 1.328125 -0.03125 C 1.671875 -0.03125 2.015625 0 2.328125 0 C 2.390625 0 2.515625 0 2.515625 -0.1875 C 2.515625 -0.296875 2.4375 -0.3125 2.359375 -0.3125 C 2.140625 -0.328125 1.890625 -0.40625 1.890625 -0.65625 C 1.890625 -0.78125 1.953125 -0.890625 2.03125 -1.03125 L 2.796875 -2.296875 L 5.296875 -2.296875 C 5.3125 -2.09375 5.453125 -0.734375 5.453125 -0.640625 C 5.453125 -0.34375 4.9375 -0.3125 4.734375 -0.3125 C 4.59375 -0.3125 4.5 -0.3125 4.5 -0.109375 C 4.5 0 4.609375 0 4.640625 0 C 5.046875 0 5.46875 -0.03125 5.875 -0.03125 C 6.125 -0.03125 6.765625 0 7.015625 0 C 7.0625 0 7.1875 0 7.1875 -0.203125 C 7.1875 -0.3125 7.09375 -0.3125 6.953125 -0.3125 C 6.34375 -0.3125 6.34375 -0.375 6.3125 -0.671875 L 5.703125 -6.890625 C 5.6875 -7.09375 5.6875 -7.140625 5.515625 -7.140625 C 5.359375 -7.140625 5.3125 -7.0625 5.25 -6.96875 Z M 2.984375 -2.609375 L 4.9375 -5.90625 L 5.265625 -2.609375 Z M 2.984375 -2.609375 "/>
</g>
<g id="glyph-1-1">
<path d="M 1.59375 -0.78125 C 1.5 -0.390625 1.46875 -0.3125 0.6875 -0.3125 C 0.515625 -0.3125 0.421875 -0.3125 0.421875 -0.109375 C 0.421875 0 0.515625 0 0.6875 0 L 4.25 0 C 5.828125 0 7 -1.171875 7 -2.15625 C 7 -2.875 6.421875 -3.453125 5.453125 -3.5625 C 6.484375 -3.75 7.53125 -4.484375 7.53125 -5.4375 C 7.53125 -6.171875 6.875 -6.8125 5.6875 -6.8125 L 2.328125 -6.8125 C 2.140625 -6.8125 2.046875 -6.8125 2.046875 -6.609375 C 2.046875 -6.5 2.140625 -6.5 2.328125 -6.5 C 2.34375 -6.5 2.53125 -6.5 2.703125 -6.484375 C 2.875 -6.453125 2.96875 -6.453125 2.96875 -6.3125 C 2.96875 -6.28125 2.953125 -6.25 2.9375 -6.125 Z M 3.09375 -3.65625 L 3.71875 -6.125 C 3.8125 -6.46875 3.828125 -6.5 4.25 -6.5 L 5.546875 -6.5 C 6.421875 -6.5 6.625 -5.90625 6.625 -5.46875 C 6.625 -4.59375 5.765625 -3.65625 4.5625 -3.65625 Z M 2.65625 -0.3125 C 2.515625 -0.3125 2.5 -0.3125 2.4375 -0.3125 C 2.328125 -0.328125 2.296875 -0.34375 2.296875 -0.421875 C 2.296875 -0.453125 2.296875 -0.46875 2.359375 -0.640625 L 3.046875 -3.421875 L 4.921875 -3.421875 C 5.875 -3.421875 6.078125 -2.6875 6.078125 -2.265625 C 6.078125 -1.28125 5.1875 -0.3125 4 -0.3125 Z M 2.65625 -0.3125 "/>
</g>
<g id="glyph-2-0">
<path d="M 6.234375 -1.46875 L 5.984375 -1.46875 C 5.921875 -1.21875 5.859375 -0.9375 5.828125 -0.8125 C 5.765625 -0.65625 5.734375 -0.59375 5.21875 -0.59375 L 4.5 -0.59375 C 4.625 -1.046875 4.8125 -1.375 5.234375 -2 C 5.703125 -2.671875 6.140625 -3.296875 6.140625 -4.078125 C 6.140625 -5.3125 4.890625 -6.328125 3.328125 -6.328125 C 1.71875 -6.328125 0.515625 -5.296875 0.515625 -4.078125 C 0.515625 -3.296875 0.953125 -2.640625 1.390625 -2.015625 C 1.859375 -1.34375 2.03125 -1.015625 2.140625 -0.59375 L 1.421875 -0.59375 C 0.90625 -0.59375 0.875 -0.65625 0.828125 -0.78125 C 0.78125 -0.921875 0.703125 -1.234375 0.65625 -1.46875 L 0.40625 -1.46875 L 0.71875 0 L 2.1875 0 C 2.390625 0 2.4375 0 2.4375 -0.1875 C 2.4375 -0.828125 2.140625 -1.5625 1.875 -2.25 C 1.640625 -2.859375 1.421875 -3.453125 1.421875 -4.078125 C 1.421875 -5.4375 2.40625 -6.09375 3.3125 -6.09375 C 4.265625 -6.09375 5.21875 -5.40625 5.21875 -4.078125 C 5.21875 -3.421875 4.984375 -2.796875 4.765625 -2.25 C 4.5 -1.5625 4.21875 -0.828125 4.21875 -0.1875 C 4.21875 0 4.265625 0 4.453125 0 L 5.921875 0 Z M 6.234375 -1.46875 "/>
</g>
<g id="glyph-2-1">
<path d="M 6.34375 -2.96875 C 6.46875 -2.96875 6.640625 -2.96875 6.640625 -3.15625 C 6.640625 -3.359375 6.453125 -3.359375 6.3125 -3.359375 L 0.84375 -3.359375 C 0.703125 -3.359375 0.515625 -3.359375 0.515625 -3.15625 C 0.515625 -2.96875 0.6875 -2.96875 0.8125 -2.96875 Z M 6.3125 -1.140625 C 6.453125 -1.140625 6.640625 -1.140625 6.640625 -1.34375 C 6.640625 -1.53125 6.46875 -1.53125 6.34375 -1.53125 L 0.8125 -1.53125 C 0.6875 -1.53125 0.515625 -1.53125 0.515625 -1.34375 C 0.515625 -1.140625 0.703125 -1.140625 0.84375 -1.140625 Z M 6.3125 -1.140625 "/>
</g>
<g id="glyph-2-2">
<path d="M 3.0625 2.140625 C 3.0625 2.09375 3.03125 2.0625 2.984375 2 C 1.828125 0.9375 1.46875 -0.671875 1.46875 -2.25 C 1.46875 -3.625 1.734375 -5.3125 3 -6.515625 C 3.046875 -6.5625 3.0625 -6.578125 3.0625 -6.625 C 3.0625 -6.6875 3.015625 -6.734375 2.953125 -6.734375 C 2.84375 -6.734375 2.03125 -6.078125 1.546875 -5.109375 C 1.125 -4.25 0.90625 -3.3125 0.90625 -2.25 C 0.90625 -1.609375 0.984375 -0.578125 1.484375 0.46875 C 2.015625 1.578125 2.84375 2.234375 2.953125 2.234375 C 3.015625 2.234375 3.0625 2.203125 3.0625 2.140625 Z M 3.0625 2.140625 "/>
</g>
<g id="glyph-2-3">
<path d="M 2.671875 -2.25 C 2.671875 -2.984375 2.5625 -3.96875 2.09375 -4.96875 C 1.5625 -6.078125 0.734375 -6.734375 0.625 -6.734375 C 0.53125 -6.734375 0.515625 -6.65625 0.515625 -6.625 C 0.515625 -6.578125 0.53125 -6.5625 0.59375 -6.5 C 1.125 -6.03125 2.109375 -4.8125 2.109375 -2.25 C 2.109375 -0.96875 1.875 0.8125 0.578125 2.03125 C 0.5625 2.046875 0.515625 2.09375 0.515625 2.140625 C 0.515625 2.15625 0.53125 2.234375 0.625 2.234375 C 0.734375 2.234375 1.546875 1.59375 2.03125 0.609375 C 2.453125 -0.25 2.671875 -1.171875 2.671875 -2.25 Z M 2.671875 -2.25 "/>
</g>
<g id="glyph-2-4">
<path d="M 4.25 -2.875 C 4.25 -3.46875 4.21875 -4.25 3.90625 -4.921875 C 3.5 -5.765625 2.828125 -5.96875 2.3125 -5.96875 C 1.765625 -5.96875 1.078125 -5.765625 0.6875 -4.890625 C 0.40625 -4.28125 0.359375 -3.546875 0.359375 -2.875 C 0.359375 -2.28125 0.375 -1.421875 0.765625 -0.703125 C 1.1875 0.046875 1.890625 0.203125 2.296875 0.203125 C 2.875 0.203125 3.546875 -0.046875 3.921875 -0.875 C 4.1875 -1.484375 4.25 -2.15625 4.25 -2.875 Z M 2.3125 -0.03125 C 2.03125 -0.03125 1.390625 -0.15625 1.21875 -1.171875 C 1.125 -1.6875 1.125 -2.46875 1.125 -2.984375 C 1.125 -3.59375 1.125 -4.296875 1.234375 -4.796875 C 1.421875 -5.59375 1.984375 -5.75 2.296875 -5.75 C 2.640625 -5.75 3.203125 -5.5625 3.375 -4.734375 C 3.46875 -4.25 3.46875 -3.546875 3.46875 -2.984375 C 3.46875 -2.421875 3.46875 -1.671875 3.375 -1.140625 C 3.1875 -0.109375 2.53125 -0.03125 2.3125 -0.03125 Z M 2.3125 -0.03125 "/>
</g>
<g id="glyph-3-0">
<path d="M 1.625 -1.046875 C 1.1875 -0.328125 0.796875 -0.3125 0.4375 -0.28125 C 0.375 -0.265625 0.328125 -0.203125 0.328125 -0.109375 C 0.328125 -0.0625 0.375 0 0.453125 0 C 0.625 0 1.046875 -0.03125 1.21875 -0.03125 C 1.421875 -0.03125 1.90625 0 2.09375 0 C 2.15625 0 2.265625 0 2.265625 -0.15625 C 2.265625 -0.265625 2.15625 -0.28125 2.140625 -0.28125 C 2.046875 -0.28125 1.71875 -0.3125 1.71875 -0.578125 C 1.71875 -0.703125 1.8125 -0.875 1.84375 -0.921875 L 2.546875 -2.078125 L 4.890625 -2.078125 C 4.921875 -1.859375 4.9375 -1.5625 4.96875 -1.34375 C 5 -0.984375 5.0625 -0.59375 5.0625 -0.5625 C 5.0625 -0.4375 4.9375 -0.28125 4.40625 -0.28125 C 4.328125 -0.28125 4.203125 -0.28125 4.203125 -0.109375 C 4.203125 -0.015625 4.28125 0 4.34375 0 C 4.515625 0 4.734375 -0.015625 4.90625 -0.015625 C 5.078125 -0.015625 5.296875 -0.03125 5.4375 -0.03125 C 5.734375 -0.03125 5.765625 -0.03125 5.96875 -0.015625 C 6.109375 -0.015625 6.328125 0 6.46875 0 C 6.515625 0 6.640625 0 6.640625 -0.15625 C 6.640625 -0.28125 6.53125 -0.28125 6.4375 -0.28125 C 5.890625 -0.28125 5.890625 -0.34375 5.859375 -0.59375 L 5.234375 -6.171875 C 5.203125 -6.375 5.203125 -6.421875 5.046875 -6.421875 C 4.921875 -6.421875 4.875 -6.359375 4.796875 -6.25 Z M 2.71875 -2.34375 L 4.53125 -5.3125 L 4.859375 -2.34375 Z M 2.71875 -2.34375 "/>
</g>
<g id="glyph-3-1">
<path d="M 1.46875 -0.6875 C 1.375 -0.359375 1.359375 -0.28125 0.6875 -0.28125 C 0.515625 -0.28125 0.421875 -0.28125 0.421875 -0.109375 C 0.421875 0 0.515625 0 0.671875 0 L 3.9375 0 C 5.390625 0 6.453125 -1.0625 6.453125 -1.921875 C 6.453125 -2.5625 5.921875 -3.109375 5.046875 -3.203125 C 6.0625 -3.40625 6.9375 -4.078125 6.9375 -4.875 C 6.9375 -5.578125 6.28125 -6.125 5.21875 -6.125 L 2.15625 -6.125 C 1.984375 -6.125 1.890625 -6.125 1.890625 -5.96875 C 1.890625 -5.84375 1.96875 -5.84375 2.15625 -5.84375 C 2.1875 -5.84375 2.34375 -5.84375 2.5 -5.828125 C 2.640625 -5.8125 2.703125 -5.796875 2.703125 -5.6875 C 2.703125 -5.65625 2.703125 -5.609375 2.671875 -5.515625 Z M 2.859375 -3.296875 L 3.40625 -5.5 C 3.484375 -5.828125 3.5 -5.84375 3.890625 -5.84375 L 5.09375 -5.84375 C 6.03125 -5.84375 6.109375 -5.140625 6.109375 -4.921875 C 6.109375 -4.109375 5.28125 -3.296875 4.265625 -3.296875 Z M 2.4375 -0.28125 C 2.3125 -0.28125 2.28125 -0.28125 2.25 -0.28125 C 2.15625 -0.296875 2.140625 -0.3125 2.140625 -0.375 C 2.140625 -0.390625 2.140625 -0.40625 2.171875 -0.578125 L 2.796875 -3.078125 L 4.484375 -3.078125 C 5.046875 -3.078125 5.609375 -2.828125 5.609375 -2.015625 C 5.609375 -1.125 4.796875 -0.28125 3.71875 -0.28125 Z M 2.4375 -0.28125 "/>
</g>
<g id="glyph-3-2">
<path d="M 2.765625 -2.8125 L 4.265625 -2.8125 C 5.71875 -2.8125 6.90625 -3.8125 6.90625 -4.765625 C 6.90625 -5.46875 6.265625 -6.125 5.09375 -6.125 L 2.140625 -6.125 C 1.96875 -6.125 1.859375 -6.125 1.859375 -5.96875 C 1.859375 -5.84375 1.953125 -5.84375 2.140625 -5.84375 C 2.171875 -5.84375 2.328125 -5.84375 2.46875 -5.828125 C 2.625 -5.8125 2.6875 -5.796875 2.6875 -5.6875 C 2.6875 -5.65625 2.6875 -5.609375 2.65625 -5.515625 L 1.4375 -0.6875 C 1.359375 -0.359375 1.34375 -0.28125 0.671875 -0.28125 C 0.5 -0.28125 0.40625 -0.28125 0.40625 -0.109375 C 0.40625 -0.015625 0.46875 0 0.53125 0 C 0.703125 0 0.9375 -0.015625 1.109375 -0.015625 C 1.375 -0.03125 1.390625 -0.03125 1.671875 -0.03125 C 1.96875 -0.03125 1.984375 -0.03125 2.25 -0.015625 C 2.4375 -0.015625 2.65625 0 2.828125 0 C 2.890625 0 3.015625 0 3.015625 -0.15625 C 3.015625 -0.28125 2.921875 -0.28125 2.734375 -0.28125 C 2.703125 -0.28125 2.53125 -0.28125 2.390625 -0.296875 C 2.203125 -0.328125 2.1875 -0.359375 2.1875 -0.4375 C 2.1875 -0.46875 2.1875 -0.484375 2.234375 -0.640625 Z M 3.421875 -5.5 C 3.5 -5.828125 3.515625 -5.84375 3.890625 -5.84375 L 4.796875 -5.84375 C 5.5 -5.84375 6.046875 -5.625 6.046875 -4.984375 C 6.046875 -4.796875 5.953125 -3.953125 5.484375 -3.515625 C 5.296875 -3.34375 4.875 -3.0625 4.109375 -3.0625 L 2.8125 -3.0625 Z M 3.421875 -5.5 "/>
</g>
<g id="glyph-4-0">
<path d="M 5.625 -3.40625 C 5.625 -4.78125 4.234375 -5.375 3.0625 -5.375 C 1.90625 -5.375 0.515625 -4.78125 0.515625 -3.40625 L 0.515625 -0.140625 C 0.515625 0.015625 0.515625 0.203125 0.703125 0.203125 C 0.890625 0.203125 0.890625 0.03125 0.890625 -0.140625 L 0.890625 -3.375 C 0.890625 -4.6875 2.359375 -5 3.0625 -5 C 3.765625 -5 5.234375 -4.703125 5.234375 -3.375 L 5.234375 -0.140625 C 5.234375 0.015625 5.234375 0.203125 5.421875 0.203125 C 5.625 0.203125 5.625 0.03125 5.625 -0.140625 Z M 5.625 -3.40625 "/>
</g>
<g id="glyph-4-1">
<path d="M 1.5625 0.015625 C 1.65625 0.078125 1.953125 0.203125 2.296875 0.203125 C 2.84375 0.203125 3.453125 -0.0625 3.828125 -0.84375 C 4.15625 -1.546875 4.171875 -2.390625 4.171875 -3.09375 C 4.171875 -3.71875 4.171875 -5.25 3.375 -6 C 3.421875 -6.1875 3.578125 -6.71875 3.578125 -6.734375 C 3.578125 -6.84375 3.484375 -6.921875 3.390625 -6.921875 C 3.25 -6.921875 3.203125 -6.8125 3.15625 -6.65625 C 3.046875 -6.265625 3.140625 -6.609375 3.046875 -6.234375 C 2.921875 -6.3125 2.640625 -6.421875 2.3125 -6.421875 C 1.671875 -6.421875 1.140625 -6.078125 0.8125 -5.421875 C 0.453125 -4.703125 0.421875 -3.8125 0.421875 -3.09375 C 0.421875 -2.46875 0.421875 -0.9375 1.234375 -0.21875 C 1.171875 -0.03125 1.015625 0.5 1.015625 0.5 C 1.015625 0.625 1.109375 0.703125 1.203125 0.703125 C 1.359375 0.703125 1.390625 0.59375 1.4375 0.4375 C 1.5625 0.046875 1.4375 0.390625 1.5625 0.015625 Z M 1.359375 -0.65625 C 1.0625 -1.25 1.0625 -2.375 1.0625 -3.203125 C 1.0625 -3.921875 1.0625 -4.625 1.203125 -5.1875 C 1.390625 -5.953125 1.90625 -6.203125 2.3125 -6.203125 C 2.625 -6.203125 2.875 -6.015625 2.953125 -5.96875 Z M 3.25 -5.59375 C 3.546875 -5.046875 3.546875 -4.109375 3.546875 -3.203125 C 3.546875 -2.5625 3.546875 -1.765625 3.421875 -1.15625 C 3.203125 -0.25 2.671875 -0.03125 2.296875 -0.03125 C 1.984375 -0.03125 1.75 -0.203125 1.65625 -0.28125 Z M 3.25 -5.59375 "/>
</g>
<g id="glyph-4-2">
<path d="M 1.765625 -2.25 C 1.765625 -2.515625 1.546875 -2.734375 1.28125 -2.734375 C 1 -2.734375 0.796875 -2.515625 0.796875 -2.25 C 0.796875 -1.984375 1 -1.765625 1.28125 -1.765625 C 1.546875 -1.765625 1.765625 -1.984375 1.765625 -2.25 Z M 1.765625 -2.25 "/>
</g>
<g id="glyph-5-0">
</g>
<g id="glyph-5-1">
<path d="M 1.90625 -5.28125 C 1.90625 -5.84375 1.671875 -6.21875 1.296875 -6.21875 C 0.984375 -6.21875 0.8125 -5.984375 0.8125 -5.734375 C 0.8125 -5.5 0.984375 -5.25 1.296875 -5.25 C 1.40625 -5.25 1.53125 -5.296875 1.625 -5.375 C 1.640625 -5.390625 1.65625 -5.40625 1.65625 -5.40625 C 1.65625 -5.40625 1.671875 -5.34375 1.671875 -5.265625 C 1.671875 -4.671875 1.40625 -4.125 0.984375 -3.71875 C 0.953125 -3.703125 0.9375 -3.671875 0.9375 -3.625 C 0.9375 -3.59375 0.984375 -3.53125 1.046875 -3.53125 C 1.140625 -3.53125 1.90625 -4.203125 1.90625 -5.28125 Z M 3.6875 -5.28125 C 3.6875 -5.84375 3.46875 -6.21875 3.078125 -6.21875 C 2.765625 -6.21875 2.59375 -5.984375 2.59375 -5.734375 C 2.59375 -5.5 2.765625 -5.25 3.078125 -5.25 C 3.203125 -5.25 3.3125 -5.296875 3.421875 -5.375 C 3.4375 -5.390625 3.453125 -5.40625 3.453125 -5.40625 C 3.453125 -5.40625 3.46875 -5.34375 3.46875 -5.265625 C 3.46875 -4.671875 3.203125 -4.125 2.765625 -3.71875 C 2.75 -3.703125 2.71875 -3.671875 2.71875 -3.625 C 2.71875 -3.59375 2.78125 -3.53125 2.84375 -3.53125 C 2.9375 -3.53125 3.6875 -4.203125 3.6875 -5.28125 Z M 3.6875 -5.28125 "/>
</g>
<g id="glyph-6-0">
<path d="M 1.4375 -0.84375 C 1.1875 -0.453125 0.96875 -0.28125 0.5625 -0.25 C 0.484375 -0.25 0.390625 -0.25 0.390625 -0.109375 C 0.390625 -0.03125 0.453125 0 0.5 0 C 0.671875 0 0.90625 -0.03125 1.09375 -0.03125 C 1.3125 -0.03125 1.609375 0 1.8125 0 C 1.84375 0 1.953125 0 1.953125 -0.15625 C 1.953125 -0.25 1.859375 -0.25 1.828125 -0.25 C 1.78125 -0.265625 1.53125 -0.265625 1.53125 -0.453125 C 1.53125 -0.546875 1.59375 -0.65625 1.625 -0.71875 L 2.1875 -1.59375 L 4.1875 -1.59375 L 4.34375 -0.4375 C 4.328125 -0.359375 4.28125 -0.25 3.875 -0.25 C 3.78125 -0.25 3.6875 -0.25 3.6875 -0.09375 C 3.6875 -0.0625 3.703125 0 3.796875 0 C 4 0 4.5 -0.03125 4.703125 -0.03125 C 4.828125 -0.03125 4.984375 -0.015625 5.109375 -0.015625 C 5.234375 -0.015625 5.375 0 5.5 0 C 5.59375 0 5.640625 -0.0625 5.640625 -0.140625 C 5.640625 -0.25 5.5625 -0.25 5.453125 -0.25 C 5.046875 -0.25 5.03125 -0.3125 5.015625 -0.46875 L 4.390625 -4.78125 C 4.375 -4.921875 4.359375 -4.96875 4.234375 -4.96875 C 4.09375 -4.96875 4.0625 -4.90625 4 -4.8125 Z M 2.359375 -1.84375 L 3.8125 -4.125 L 4.140625 -1.84375 Z M 2.359375 -1.84375 "/>
</g>
<g id="glyph-6-1">
<path d="M 1.328125 -0.546875 C 1.265625 -0.3125 1.25 -0.25 0.703125 -0.25 C 0.59375 -0.25 0.5 -0.25 0.5 -0.109375 C 0.5 0 0.578125 0 0.703125 0 L 3.40625 0 C 4.578125 0 5.484375 -0.796875 5.484375 -1.484375 C 5.484375 -1.984375 5.03125 -2.40625 4.28125 -2.484375 C 5.125 -2.640625 5.828125 -3.171875 5.828125 -3.765625 C 5.828125 -4.296875 5.296875 -4.765625 4.390625 -4.765625 L 1.859375 -4.765625 C 1.71875 -4.765625 1.625 -4.765625 1.625 -4.609375 C 1.625 -4.515625 1.71875 -4.515625 1.859375 -4.515625 C 1.859375 -4.515625 2 -4.515625 2.125 -4.5 C 2.265625 -4.484375 2.28125 -4.46875 2.28125 -4.390625 C 2.28125 -4.390625 2.28125 -4.34375 2.25 -4.25 Z M 2.4375 -2.578125 L 2.859375 -4.265625 C 2.921875 -4.484375 2.921875 -4.515625 3.21875 -4.515625 L 4.28125 -4.515625 C 4.984375 -4.515625 5.15625 -4.046875 5.15625 -3.78125 C 5.15625 -3.21875 4.515625 -2.578125 3.578125 -2.578125 Z M 2.109375 -0.25 C 1.890625 -0.25 1.875 -0.265625 1.875 -0.328125 C 1.875 -0.328125 1.875 -0.359375 1.90625 -0.46875 L 2.390625 -2.375 L 3.875 -2.375 C 4.515625 -2.375 4.78125 -1.9375 4.78125 -1.546875 C 4.78125 -0.84375 4.0625 -0.25 3.21875 -0.25 Z M 2.109375 -0.25 "/>
</g>
</g>
<clipPath id="clip-0">
<path clip-rule="nonzero" d="M 150 0 L 312.960938 0 L 312.960938 171 L 150 171 Z M 150 0 "/>
</clipPath>
<clipPath id="clip-1">
<path clip-rule="nonzero" d="M 231 54 L 235 54 L 235 114 L 231 114 Z M 231 54 "/>
</clipPath>
<clipPath id="clip-2">
<path clip-rule="nonzero" d="M 234.574219 83.765625 C 234.574219 67.40625 221.3125 54.144531 204.949219 54.144531 C 188.589844 54.144531 175.328125 67.40625 175.328125 83.765625 C 175.328125 100.128906 188.589844 113.390625 204.949219 113.390625 C 221.3125 113.390625 234.574219 100.128906 234.574219 83.765625 Z M 234.574219 83.765625 "/>
</clipPath>
</defs>
<path fill-rule="nonzero" fill="rgb(94.999695%, 94.999695%, 100%)" fill-opacity="1" stroke-width="0.79701" stroke-linecap="butt" stroke-linejoin="miter" stroke="rgb(0%, 0%, 0%)" stroke-opacity="1" stroke-miterlimit="10" d="M -148.110813 -71.416594 L -148.110813 71.415438 C -148.110813 73.618563 -146.325656 75.403719 -144.126438 75.403719 L -9.372531 75.403719 C -7.169406 75.403719 -5.38425 73.618563 -5.38425 71.415438 L -5.38425 -71.416594 C -5.38425 -73.619719 -7.169406 -75.400969 -9.372531 -75.400969 L -144.126438 -75.400969 C -146.325656 -75.400969 -148.110813 -73.619719 -148.110813 -71.416594 Z M -148.110813 -71.416594 " transform="matrix(1, 0, 0, -1, 156.478, 83.767)"/>
<g fill="rgb(0%, 0%, 69.999695%)" fill-opacity="1">
<use xlink:href="#glyph-0-0" x="29.907" y="20.005"/>
<use xlink:href="#glyph-0-0" x="32.417592" y="20.005"/>
<use xlink:href="#glyph-0-0" x="34.928184" y="20.005"/>
<use xlink:href="#glyph-0-1" x="37.438776" y="20.005"/>
<use xlink:href="#glyph-0-2" x="47.499077" y="20.005"/>
<use xlink:href="#glyph-0-3" x="53.390002" y="20.005"/>
<use xlink:href="#glyph-0-2" x="57.514546" y="20.005"/>
<use xlink:href="#glyph-0-4" x="63.40547" y="20.005"/>
<use xlink:href="#glyph-0-5" x="68.56115" y="20.005"/>
<use xlink:href="#glyph-0-5" x="71.511096" y="20.005"/>
<use xlink:href="#glyph-0-6" x="74.461042" y="20.005"/>
</g>
<g fill="rgb(0%, 0%, 69.999695%)" fill-opacity="1">
<use xlink:href="#glyph-0-7" x="83.597803" y="20.005"/>
<use xlink:href="#glyph-0-8" x="90.564696" y="20.005"/>
<use xlink:href="#glyph-0-9" x="96.168696" y="20.005"/>
<use xlink:href="#glyph-0-5" x="100.885022" y="20.005"/>
<use xlink:href="#glyph-0-2" x="103.834968" y="20.005"/>
<use xlink:href="#glyph-0-10" x="109.725893" y="20.005"/>
<use xlink:href="#glyph-0-11" x="113.913202" y="20.005"/>
<use xlink:href="#glyph-0-12" x="116.863147" y="20.005"/>
</g>
<g fill="rgb(0%, 0%, 69.999695%)" fill-opacity="1">
<use xlink:href="#glyph-0-13" x="122.180222" y="20.005"/>
<use xlink:href="#glyph-0-0" x="127.048978" y="20.005"/>
</g>
<path fill-rule="nonzero" fill="rgb(69.999695%, 69.999695%, 100%)" fill-opacity="1" stroke-width="0.79701" stroke-linecap="butt" stroke-linejoin="miter" stroke="rgb(0%, 0%, 0%)" stroke-opacity="1" stroke-miterlimit="10" d="M -80.786594 0.001375 C -80.786594 16.36075 -94.052219 29.622469 -110.411594 29.622469 C -126.770969 29.622469 -140.032688 16.36075 -140.032688 0.001375 C -140.032688 -16.361906 -126.770969 -29.623625 -110.411594 -29.623625 C -94.052219 -29.623625 -80.786594 -16.361906 -80.786594 0.001375 Z M -80.786594 0.001375 " transform="matrix(1, 0, 0, -1, 156.478, 83.767)"/>
<path fill-rule="nonzero" fill="rgb(100%, 69.999695%, 69.999695%)" fill-opacity="1" stroke-width="0.79701" stroke-linecap="butt" stroke-linejoin="miter" stroke="rgb(0%, 0%, 0%)" stroke-opacity="1" stroke-miterlimit="10" d="M -13.466281 0.001375 C -13.466281 16.36075 -26.728 29.622469 -43.087375 29.622469 C -59.44675 29.622469 -72.708469 16.36075 -72.708469 0.001375 C -72.708469 -16.361906 -59.44675 -29.623625 -43.087375 -29.623625 C -26.728 -29.623625 -13.466281 -16.361906 -13.466281 0.001375 Z M -13.466281 0.001375 " transform="matrix(1, 0, 0, -1, 156.478, 83.767)"/>
<g fill="rgb(0%, 0%, 0%)" fill-opacity="1">
<use xlink:href="#glyph-1-0" x="42.331" y="87.171"/>
</g>
<g fill="rgb(0%, 0%, 0%)" fill-opacity="1">
<use xlink:href="#glyph-1-1" x="109.363" y="87.171"/>
</g>
<g fill="rgb(50%, 50%, 50%)" fill-opacity="1">
<use xlink:href="#glyph-2-0" x="13.117" y="22.2"/>
</g>
<path fill-rule="nonzero" fill="rgb(100%, 100%, 100%)" fill-opacity="1" stroke-width="0.3985" stroke-linecap="butt" stroke-linejoin="miter" stroke="rgb(0%, 0%, 0%)" stroke-opacity="1" stroke-miterlimit="10" d="M -53.638156 -33.522062 L -99.860813 -33.522062 C -101.50925 -33.522062 -102.849094 -34.861906 -102.849094 -36.51425 L -102.849094 -65.818937 C -102.849094 -67.471281 -101.50925 -68.807219 -99.860813 -68.807219 L -53.638156 -68.807219 C -51.989719 -68.807219 -50.649875 -67.471281 -50.649875 -65.818937 L -50.649875 -36.51425 C -50.649875 -34.861906 -51.989719 -33.522062 -53.638156 -33.522062 Z M -53.638156 -33.522062 " transform="matrix(1, 0, 0, -1, 156.478, 83.767)"/>
<g fill="rgb(0%, 0%, 0%)" fill-opacity="1">
<use xlink:href="#glyph-3-0" x="58.997" y="127.336"/>
</g>
<g fill="rgb(0%, 0%, 0%)" fill-opacity="1">
<use xlink:href="#glyph-4-0" x="67.955" y="127.336"/>
</g>
<g fill="rgb(0%, 0%, 0%)" fill-opacity="1">
<use xlink:href="#glyph-3-1" x="76.147" y="127.336"/>
</g>
<g fill="rgb(0%, 0%, 0%)" fill-opacity="1">
<use xlink:href="#glyph-2-1" x="86.126" y="127.336"/>
</g>
<g fill="rgb(0%, 0%, 0%)" fill-opacity="1">
<use xlink:href="#glyph-4-1" x="95.854" y="127.336"/>
</g>
<g fill="rgb(0%, 0%, 0%)" fill-opacity="1">
<use xlink:href="#glyph-3-2" x="56.951" y="138.295"/>
</g>
<g fill="rgb(0%, 0%, 0%)" fill-opacity="1">
<use xlink:href="#glyph-2-2" x="64.115" y="138.295"/>
</g>
<g fill="rgb(0%, 0%, 0%)" fill-opacity="1">
<use xlink:href="#glyph-3-0" x="67.699" y="138.295"/>
<use xlink:href="#glyph-3-1" x="74.603128" y="138.295"/>
</g>
<g fill="rgb(0%, 0%, 0%)" fill-opacity="1">
<use xlink:href="#glyph-2-3" x="82.029" y="138.295"/>
</g>
<g fill="rgb(0%, 0%, 0%)" fill-opacity="1">
<use xlink:href="#glyph-2-1" x="88.162018" y="138.295"/>
</g>
<g fill="rgb(0%, 0%, 0%)" fill-opacity="1">
<use xlink:href="#glyph-2-4" x="97.881595" y="138.295"/>
</g>
<g fill="rgb(0%, 0%, 0%)" fill-opacity="1">
<use xlink:href="#glyph-5-0" x="72.197" y="149.254"/>
<use xlink:href="#glyph-5-0" x="74.707592" y="149.254"/>
<use xlink:href="#glyph-5-0" x="77.218184" y="149.254"/>
<use xlink:href="#glyph-5-0" x="79.728776" y="149.254"/>
<use xlink:href="#glyph-5-0" x="82.239368" y="149.254"/>
<use xlink:href="#glyph-5-0" x="84.74996" y="149.254"/>
</g>
<path fill-rule="nonzero" fill="rgb(94.999695%, 100%, 94.999695%)" fill-opacity="1" d="M 161.863281 155.183594 L 161.863281 12.351562 C 161.863281 10.148438 163.648438 8.363281 165.847656 8.363281 L 300.605469 8.363281 C 302.804688 8.363281 304.589844 10.148438 304.589844 12.351562 L 304.589844 155.183594 C 304.589844 157.386719 302.804688 159.167969 300.605469 159.167969 L 165.847656 159.167969 C 163.648438 159.167969 161.863281 157.386719 161.863281 155.183594 Z M 161.863281 155.183594 "/>
<g clip-path="url(#clip-0)">
<path fill="none" stroke-width="0.79701" stroke-linecap="butt" stroke-linejoin="miter" stroke="rgb(0%, 0%, 0%)" stroke-opacity="1" stroke-miterlimit="10" d="M 5.385281 -71.416594 L 5.385281 71.415438 C 5.385281 73.618563 7.170437 75.403719 9.369656 75.403719 L 144.127469 75.403719 C 146.326687 75.403719 148.111844 73.618563 148.111844 71.415438 L 148.111844 -71.416594 C 148.111844 -73.619719 146.326687 -75.400969 144.127469 -75.400969 L 9.369656 -75.400969 C 7.170437 -75.400969 5.385281 -73.619719 5.385281 -71.416594 Z M 5.385281 -71.416594 " transform="matrix(1, 0, 0, -1, 156.478, 83.767)"/>
</g>
<g fill="rgb(0%, 59.999084%, 0%)" fill-opacity="1">
<use xlink:href="#glyph-0-0" x="199.168" y="20.032"/>
<use xlink:href="#glyph-0-0" x="201.678592" y="20.032"/>
<use xlink:href="#glyph-0-0" x="204.189184" y="20.032"/>
<use xlink:href="#glyph-0-14" x="206.699776" y="20.032"/>
<use xlink:href="#glyph-0-15" x="210.69879" y="20.032"/>
<use xlink:href="#glyph-0-16" x="216.589715" y="20.032"/>
<use xlink:href="#glyph-0-13" x="222.48064" y="20.032"/>
<use xlink:href="#glyph-0-17" x="227.349395" y="20.032"/>
</g>
<g fill="rgb(0%, 59.999084%, 0%)" fill-opacity="1">
<use xlink:href="#glyph-0-13" x="233.536211" y="20.032"/>
<use xlink:href="#glyph-0-15" x="238.404966" y="20.032"/>
<use xlink:href="#glyph-0-16" x="244.295891" y="20.032"/>
<use xlink:href="#glyph-0-13" x="250.186816" y="20.032"/>
<use xlink:href="#glyph-0-15" x="255.055571" y="20.032"/>
</g>
<g fill="rgb(0%, 59.999084%, 0%)" fill-opacity="1">
<use xlink:href="#glyph-0-3" x="260.659571" y="20.032"/>
<use xlink:href="#glyph-0-0" x="264.784115" y="20.032"/>
</g>
<path fill-rule="nonzero" fill="rgb(79.998779%, 79.998779%, 100%)" fill-opacity="1" stroke-width="0.79701" stroke-linecap="butt" stroke-linejoin="miter" stroke="rgb(0%, 0%, 0%)" stroke-opacity="1" stroke-miterlimit="10" d="M 78.096219 0.001375 C 78.096219 16.36075 64.8345 29.622469 48.471219 29.622469 C 32.111844 29.622469 18.850125 16.36075 18.850125 0.001375 C 18.850125 -16.361906 32.111844 -29.623625 48.471219 -29.623625 C 64.8345 -29.623625 78.096219 -16.361906 78.096219 0.001375 Z M 78.096219 0.001375 " transform="matrix(1, 0, 0, -1, 156.478, 83.767)"/>
<path fill-rule="nonzero" fill="rgb(100%, 79.998779%, 79.998779%)" fill-opacity="0.7" stroke-width="0.79701" stroke-linecap="butt" stroke-linejoin="miter" stroke="rgb(0%, 0%, 0%)" stroke-opacity="1" stroke-miterlimit="10" d="M 134.647 0.001375 C 134.647 16.36075 121.385281 29.622469 105.025906 29.622469 C 88.662625 29.622469 75.400906 16.36075 75.400906 0.001375 C 75.400906 -16.361906 88.662625 -29.623625 105.025906 -29.623625 C 121.385281 -29.623625 134.647 -16.361906 134.647 0.001375 Z M 134.647 0.001375 " transform="matrix(1, 0, 0, -1, 156.478, 83.767)"/>
<g clip-path="url(#clip-1)">
<g clip-path="url(#clip-2)">
<path fill-rule="nonzero" fill="rgb(92.498779%, 69.999695%, 77.49939%)" fill-opacity="0.8" d="M 291.125 83.765625 C 291.125 67.40625 277.863281 54.144531 261.503906 54.144531 C 245.140625 54.144531 231.878906 67.40625 231.878906 83.765625 C 231.878906 100.128906 245.140625 113.390625 261.503906 113.390625 C 277.863281 113.390625 291.125 100.128906 291.125 83.765625 Z M 291.125 83.765625 "/>
</g>
</g>
<path fill="none" stroke-width="0.79701" stroke-linecap="butt" stroke-linejoin="miter" stroke="rgb(0%, 0%, 0%)" stroke-opacity="1" stroke-miterlimit="10" d="M 78.096219 0.001375 C 78.096219 16.36075 64.8345 29.622469 48.471219 29.622469 C 32.111844 29.622469 18.850125 16.36075 18.850125 0.001375 C 18.850125 -16.361906 32.111844 -29.623625 48.471219 -29.623625 C 64.8345 -29.623625 78.096219 -16.361906 78.096219 0.001375 Z M 78.096219 0.001375 " transform="matrix(1, 0, 0, -1, 156.478, 83.767)"/>
<path fill="none" stroke-width="0.79701" stroke-linecap="butt" stroke-linejoin="miter" stroke="rgb(0%, 0%, 0%)" stroke-opacity="1" stroke-miterlimit="10" d="M 134.647 0.001375 C 134.647 16.36075 121.385281 29.622469 105.025906 29.622469 C 88.662625 29.622469 75.400906 16.36075 75.400906 0.001375 C 75.400906 -16.361906 88.662625 -29.623625 105.025906 -29.623625 C 121.385281 -29.623625 134.647 -16.361906 134.647 0.001375 Z M 134.647 0.001375 " transform="matrix(1, 0, 0, -1, 156.478, 83.767)"/>
<g fill="rgb(0%, 0%, 0%)" fill-opacity="1">
<use xlink:href="#glyph-1-0" x="187.75" y="76.399"/>
</g>
<g fill="rgb(0%, 0%, 0%)" fill-opacity="1">
<use xlink:href="#glyph-1-1" x="270.939" y="76.399"/>
</g>
<g fill="rgb(59.999084%, 0%, 19.999695%)" fill-opacity="1">
<use xlink:href="#glyph-6-0" x="227.051" y="86.15"/>
<use xlink:href="#glyph-6-1" x="233.041494" y="86.15"/>
</g>
<g fill="rgb(50%, 50%, 50%)" fill-opacity="1">
<use xlink:href="#glyph-2-0" x="165.268" y="22.2"/>
</g>
<path fill-rule="nonzero" fill="rgb(100%, 100%, 100%)" fill-opacity="1" stroke-width="0.3985" stroke-linecap="butt" stroke-linejoin="miter" stroke="rgb(0%, 0%, 0%)" stroke-opacity="1" stroke-miterlimit="10" d="M 122.377469 -33.522062 L 31.119656 -33.522062 C 29.467312 -33.522062 28.131375 -34.861906 28.131375 -36.51425 L 28.131375 -65.818937 C 28.131375 -67.471281 29.467312 -68.807219 31.119656 -68.807219 L 122.377469 -68.807219 C 124.029812 -68.807219 125.369656 -67.471281 125.369656 -65.818937 L 125.369656 -36.51425 C 125.369656 -34.861906 124.029812 -33.522062 122.377469 -33.522062 Z M 122.377469 -33.522062 " transform="matrix(1, 0, 0, -1, 156.478, 83.767)"/>
<g fill="rgb(0%, 0%, 0%)" fill-opacity="1">
<use xlink:href="#glyph-3-2" x="187.928" y="127.336"/>
</g>
<g fill="rgb(0%, 0%, 0%)" fill-opacity="1">
<use xlink:href="#glyph-2-2" x="195.092" y="127.336"/>
</g>
<g fill="rgb(0%, 0%, 0%)" fill-opacity="1">
<use xlink:href="#glyph-3-0" x="198.676" y="127.336"/>
<use xlink:href="#glyph-3-1" x="205.580128" y="127.336"/>
</g>
<g fill="rgb(0%, 0%, 0%)" fill-opacity="1">
<use xlink:href="#glyph-2-3" x="213.006" y="127.336"/>
</g>
<g fill="rgb(0%, 0%, 0%)" fill-opacity="1">
<use xlink:href="#glyph-2-1" x="219.139018" y="127.336"/>
</g>
<g fill="rgb(0%, 0%, 0%)" fill-opacity="1">
<use xlink:href="#glyph-3-2" x="228.877" y="127.336"/>
</g>
<g fill="rgb(0%, 0%, 0%)" fill-opacity="1">
<use xlink:href="#glyph-2-2" x="236.04" y="127.336"/>
</g>
<g fill="rgb(0%, 0%, 0%)" fill-opacity="1">
<use xlink:href="#glyph-3-0" x="239.624" y="127.336"/>
</g>
<g fill="rgb(0%, 0%, 0%)" fill-opacity="1">
<use xlink:href="#glyph-2-3" x="246.534" y="127.336"/>
</g>
<g fill="rgb(0%, 0%, 0%)" fill-opacity="1">
<use xlink:href="#glyph-4-2" x="252.166" y="127.336"/>
</g>
<g fill="rgb(0%, 0%, 0%)" fill-opacity="1">
<use xlink:href="#glyph-3-2" x="256.773" y="127.336"/>
</g>
<g fill="rgb(0%, 0%, 0%)" fill-opacity="1">
<use xlink:href="#glyph-2-2" x="263.937" y="127.336"/>
</g>
<g fill="rgb(0%, 0%, 0%)" fill-opacity="1">
<use xlink:href="#glyph-3-1" x="267.521" y="127.336"/>
</g>
<g fill="rgb(0%, 0%, 0%)" fill-opacity="1">
<use xlink:href="#glyph-2-3" x="274.941" y="127.336"/>
</g>
<g fill="rgb(0%, 0%, 0%)" fill-opacity="1">
<use xlink:href="#glyph-5-0" x="228.205" y="138.295"/>
<use xlink:href="#glyph-5-0" x="230.715592" y="138.295"/>
<use xlink:href="#glyph-5-0" x="233.226184" y="138.295"/>
<use xlink:href="#glyph-5-0" x="235.736776" y="138.295"/>
</g>
<g fill="rgb(0%, 0%, 0%)" fill-opacity="1">
<use xlink:href="#glyph-5-0" x="225.695" y="149.254"/>
<use xlink:href="#glyph-5-0" x="228.205592" y="149.254"/>
<use xlink:href="#glyph-5-0" x="230.716184" y="149.254"/>
<use xlink:href="#glyph-5-0" x="233.226776" y="149.254"/>
<use xlink:href="#glyph-5-0" x="235.737368" y="149.254"/>
<use xlink:href="#glyph-5-0" x="238.24796" y="149.254"/>
</g>
<path fill-rule="nonzero" fill="rgb(100%, 98.979187%, 80.000305%)" fill-opacity="1" stroke-width="0.3985" stroke-linecap="butt" stroke-linejoin="miter" stroke="rgb(0%, 0%, 0%)" stroke-opacity="1" stroke-miterlimit="10" d="M 66.881375 -87.818937 L -66.880344 -87.818937 C -69.083469 -87.818937 -70.868625 -89.604094 -70.868625 -91.807219 L -70.868625 -96.697844 C -70.868625 -98.900969 -69.083469 -100.686125 -66.880344 -100.686125 L 66.881375 -100.686125 C 69.0845 -100.686125 70.86575 -98.900969 70.86575 -96.697844 L 70.86575 -91.807219 C 70.86575 -89.604094 69.0845 -87.818937 66.881375 -87.818937 Z M 66.881375 -87.818937 " transform="matrix(1, 0, 0, -1, 156.478, 83.767)"/>
<g fill="rgb(0%, 0%, 0%)" fill-opacity="1">
<use xlink:href="#glyph-0-0" x="122.656" y="181.131"/>
<use xlink:href="#glyph-0-0" x="125.166592" y="181.131"/>
<use xlink:href="#glyph-0-0" x="127.677184" y="181.131"/>
<use xlink:href="#glyph-0-0" x="130.187776" y="181.131"/>
</g>
<g fill="rgb(0%, 0%, 0%)" fill-opacity="1">
<use xlink:href="#glyph-5-0" x="132.699" y="181.131"/>
<use xlink:href="#glyph-5-0" x="135.209592" y="181.131"/>
<use xlink:href="#glyph-5-0" x="137.720184" y="181.131"/>
<use xlink:href="#glyph-5-0" x="140.230776" y="181.131"/>
<use xlink:href="#glyph-5-0" x="142.741368" y="181.131"/>
<use xlink:href="#glyph-5-1" x="145.25196" y="181.131"/>
<use xlink:href="#glyph-5-0" x="149.60963" y="181.131"/>
<use xlink:href="#glyph-5-0" x="152.120222" y="181.131"/>
<use xlink:href="#glyph-5-0" x="154.630814" y="181.131"/>
<use xlink:href="#glyph-5-1" x="157.141406" y="181.131"/>
<use xlink:href="#glyph-5-0" x="161.499077" y="181.131"/>
<use xlink:href="#glyph-5-0" x="164.009669" y="181.131"/>
<use xlink:href="#glyph-5-0" x="166.520261" y="181.131"/>
<use xlink:href="#glyph-5-0" x="169.030853" y="181.131"/>
<use xlink:href="#glyph-5-0" x="171.541445" y="181.131"/>
<use xlink:href="#glyph-5-1" x="174.052037" y="181.131"/>
<use xlink:href="#glyph-5-0" x="178.409707" y="181.131"/>
<use xlink:href="#glyph-5-0" x="180.920299" y="181.131"/>
<use xlink:href="#glyph-5-0" x="183.430891" y="181.131"/>
<use xlink:href="#glyph-5-1" x="185.941483" y="181.131"/>
</g>
</svg>
